HIERARCHY
ROOT Hips
{
	OFFSET 0.000000 0.000000 0.000000
	CHANNELS 6 Xposition Yposition Zposition Zrotation Yrotation Xrotation 
	JOINT LHipJoint
	{
		OFFSET 0.000000 0.000000 0.000000
		CHANNELS 3 Zrotation Yrotation Xrotation
		JOINT LeftUpLeg
		{
			OFFSET 1.363060 -1.794630 0.839290
			CHANNELS 3 Zrotation Yrotation Xrotation
			JOINT LeftLeg
			{
				OFFSET 2.448110 -6.726130 0.000000
				CHANNELS 3 Zrotation Yrotation Xrotation
				JOINT LeftFoot
				{
					OFFSET 2.562200 -7.039590 0.000000
					CHANNELS 3 Zrotation Yrotation Xrotation
					JOINT LeftToeBase
					{
						OFFSET 0.157640 -0.433110 2.322550
						CHANNELS 3 Zrotation Yrotation Xrotation
						End Site
						{
							OFFSET 0.000000 0.000000 0.000000
						}
					}
				}
			}
		}
	}
	JOINT RHipJoint
	{
		OFFSET 0.000000 0.000000 0.000000
		CHANNELS 3 Zrotation Yrotation Xrotation
		JOINT RightUpLeg
		{
			OFFSET -1.305520 -1.794630 0.839290
			CHANNELS 3 Zrotation Yrotation Xrotation
			JOINT RightLeg
			{
				OFFSET -2.542530 -6.985550 0.000000
				CHANNELS 3 Zrotation Yrotation Xrotation
				JOINT RightFoot
				{
					OFFSET -2.568260 -7.056230 0.000000
					CHANNELS 3 Zrotation Yrotation Xrotation
					JOINT RightToeBase
					{
						OFFSET -0.164730 -0.452590 2.363150
						CHANNELS 3 Zrotation Yrotation Xrotation
						End Site
						{
							OFFSET 0.000000 0.000000 0.000000
						}
					}
				}
			}
		}
	}
	JOINT LowerBack
	{
		OFFSET 0.000000 0.000000 0.000000
		CHANNELS 3 Zrotation Yrotation Xrotation
		JOINT Spine
		{
			OFFSET 0.028270 2.035590 -0.193380
			CHANNELS 3 Zrotation Yrotation Xrotation
			JOINT Spine1
			{
				OFFSET 0.056720 2.048850 -0.042750
				CHANNELS 3 Zrotation Yrotation Xrotation
				JOINT Neck
				{
					OFFSET 0.000000 0.000000 0.000000
					CHANNELS 3 Zrotation Yrotation Xrotation
					JOINT Neck1
					{
						OFFSET -0.054170 1.746240 0.172020
						CHANNELS 3 Zrotation Yrotation Xrotation
						JOINT Head
						{
							OFFSET 0.104070 1.761360 -0.123970
							CHANNELS 3 Zrotation Yrotation Xrotation
							End Site
							{
								OFFSET 0.000000 0.000000 0.000000
							}
						}
					}
				}
				JOINT LeftShoulder
				{
					OFFSET 0.000000 0.000000 0.000000
					CHANNELS 3 Zrotation Yrotation Xrotation
					JOINT LeftArm
					{
						OFFSET 3.362410 1.200890 -0.311210
						CHANNELS 3 Zrotation Yrotation Xrotation
						JOINT LeftForeArm
						{
							OFFSET 4.983000 -0.000000 -0.000000
							CHANNELS 3 Zrotation Yrotation Xrotation
							JOINT LeftHand
							{
								OFFSET 3.483560 -0.000000 -0.000000
								CHANNELS 3 Zrotation Yrotation Xrotation
								JOINT LeftFingerBase
								{
									OFFSET 0.000000 0.000000 0.000000
									CHANNELS 3 Zrotation Yrotation Xrotation
									JOINT LeftHandIndex1
									{
										OFFSET 0.715260 -0.000000 -0.000000
										CHANNELS 3 Zrotation Yrotation Xrotation
										End Site
										{
											OFFSET 0.000000 0.000000 0.000000
										}
									}
								}
								JOINT LThumb
								{
									OFFSET 0.000000 0.000000 0.000000
									CHANNELS 3 Zrotation Yrotation Xrotation
									End Site
									{
										OFFSET 0.000000 0.000000 0.000000
									}
								}
							}
						}
					}
				}
				JOINT RightShoulder
				{
					OFFSET 0.000000 0.000000 0.000000
					CHANNELS 3 Zrotation Yrotation Xrotation
					JOINT RightArm
					{
						OFFSET -3.136600 1.374050 -0.404650
						CHANNELS 3 Zrotation Yrotation Xrotation
						JOINT RightForeArm
						{
							OFFSET -5.241900 -0.000000 -0.000000
							CHANNELS 3 Zrotation Yrotation Xrotation
							JOINT RightHand
							{
								OFFSET -3.444170 -0.000000 -0.000000
								CHANNELS 3 Zrotation Yrotation Xrotation
								JOINT RightFingerBase
								{
									OFFSET 0.000000 0.000000 0.000000
									CHANNELS 3 Zrotation Yrotation Xrotation
									JOINT RightHandIndex1
									{
										OFFSET -0.622530 -0.000000 -0.000000
										CHANNELS 3 Zrotation Yrotation Xrotation
										End Site
										{
											OFFSET 0.000000 0.000000 0.000000
										}
									}
								}
								JOINT RThumb
								{
									OFFSET 0.000000 0.000000 0.000000
									CHANNELS 3 Zrotation Yrotation Xrotation
									End Site
									{
										OFFSET 0.000000 0.000000 0.000000
									}
								}
							}
						}
					}
				}
			}
		}
	}
}
MOTION
Frames: 6
Frame Time: 0.008333
4.213525 17.358226 1.287483 -177.198208 -58.627257 -162.838116 -11.366496 2.331946 -4.130672 -14.392103 32.289465 -19.574727 -3.592731 -1.253206 -5.897510 1.940814 14.582718 1.547112 2.535800 -0.000000 -38.564000 9.375669 -0.021374 4.374350 -2.030031 10.602427 -23.042799 2.955785 1.529266 -5.488034 1.537142 7.996621 14.805616 2.183000 0.000000 -69.711400 1.422689 -5.855153 0.204704 0.645301 -5.841437 -2.435271 -2.941199 -5.960118 1.246249 18.171278 -16.014798 -7.893310 0.032656 0.010967 -0.057996 0.000000 0.000000 0.000000 29.315644 -4.486222 3.600470 20.937238 -30.317986 -86.283390 2.229141 -1.754875 -0.173083 22.561385 2.118973 0.364024 -0.935810 0.354785 -0.000000 0.000000 0.000000 0.000000 0.000000 0.000000 0.000000 8.881825 -14.726983 -1.249301 59.456159 18.178464 39.560737 179.313057 69.860803 179.964517 -7.028134 2.418696 -0.176885 0.228309 -0.395416 0.000000 0.000000 0.000000 0.000000 0.000000 0.000000 0.000000 
4.210914 17.359136 1.286473 -177.296497 -58.775718 -162.660077 -11.363515 2.329479 -4.079938 -14.481390 32.079588 -19.658155 -3.586529 -1.265024 -5.922615 1.951192 14.616203 1.566757 2.548299 0.000000 -38.479099 9.376276 -0.024317 4.369976 -2.062482 10.479031 -23.118603 2.952999 1.533973 -5.530989 1.535473 7.977071 14.826886 2.179000 0.000000 -69.703000 1.479788 -5.816734 0.163658 0.635844 -5.810792 -2.446212 -3.008980 -5.926044 1.220363 18.142421 -16.240433 -7.836841 -0.044839 0.004020 -0.039054 0.000000 0.000000 0.000000 29.494664 -4.731023 3.486175 19.555013 -30.734320 -82.585217 1.865865 -4.165587 -0.127898 15.773074 3.332100 0.432624 -0.658190 0.321112 -0.000000 0.000000 0.000000 0.000000 0.000000 0.000000 0.000000 9.013247 -14.809467 -1.300299 59.686015 17.137710 38.868048 179.315571 69.763974 179.964115 -7.027392 2.381698 -0.174552 0.226053 -0.397298 0.000000 0.000000 0.000000 0.000000 0.000000 0.000000 0.000000 
4.209534 17.359957 1.285630 -177.407016 -58.955912 -162.502799 -11.367022 2.327522 -4.022735 -14.541909 31.849076 -19.704410 -3.575754 -1.276177 -5.947307 1.962452 14.654957 1.585559 2.561000 -0.000000 -38.389700 9.373214 -0.030487 4.360608 -2.086503 10.344462 -23.164680 2.949030 1.536969 -5.547623 1.529605 7.936325 14.821901 2.165500 -0.000000 -69.686900 1.584081 -5.766072 0.125114 0.624356 -5.772339 -2.455698 -3.113915 -5.882250 1.184719 18.041001 -16.456584 -7.719811 -0.143048 -0.005583 -0.004194 0.000000 0.000000 0.000000 29.534431 -4.996000 3.320013 18.206098 -31.101288 -78.681522 1.579461 -6.823847 -0.084711 9.991627 3.565588 0.292889 -0.403886 0.331714 -0.000000 0.000000 0.000000 0.000000 0.000000 0.000000 0.000000 9.118361 -14.931163 -1.340042 60.013553 16.121766 38.197711 179.317823 69.709239 179.963632 -7.037154 2.357470 -0.173219 0.223888 -0.399714 0.000000 0.000000 0.000000 0.000000 0.000000 0.000000 0.000000 
4.209544 17.360607 1.285149 -177.526314 -59.159606 -162.367582 -11.376013 2.325838 -3.963550 -14.575815 31.608149 -19.718165 -3.561525 -1.285469 -5.968891 1.973429 14.693213 1.600462 2.572500 0.000000 -38.299000 9.366825 -0.037195 4.344963 -2.103189 10.206241 -23.189360 2.943265 1.537104 -5.523270 1.518953 7.872683 14.784054 2.141700 0.000000 -69.662100 1.730953 -5.710451 0.096177 0.612579 -5.732457 -2.460943 -3.248730 -5.835689 1.150443 17.882387 -16.665759 -7.557986 -0.255853 -0.017036 0.042101 0.000000 0.000000 0.000000 29.431982 -5.210080 3.104482 16.912758 -31.460114 -74.835279 1.388585 -9.710884 -0.047771 5.449201 3.079232 0.132558 -0.197788 0.374072 0.000000 0.000000 0.000000 0.000000 0.000000 0.000000 0.000000 9.201358 -15.087435 -1.371728 60.430487 15.166529 37.558033 179.319864 69.703262 179.963107 -7.053755 2.344151 -0.172888 0.221778 -0.402426 0.000000 0.000000 0.000000 0.000000 0.000000 0.000000 0.000000 
4.210940 17.361034 1.285171 -177.649012 -59.377366 -162.254549 -11.389557 2.324434 -3.906694 -14.585500 31.366022 -19.704405 -3.544957 -1.291753 -5.984270 1.982478 14.726113 1.608523 2.581900 -0.000000 -38.211200 9.357772 -0.042358 4.322355 -2.115620 10.071078 -23.179104 2.936671 1.537075 -5.492900 1.505670 7.783736 14.734348 2.106800 0.000001 -69.629200 1.914833 -5.656876 0.083054 0.601824 -5.697265 -2.460533 -3.406248 -5.793000 1.122724 17.681352 -16.869117 -7.364484 -0.377299 -0.029609 0.096208 0.000000 0.000000 0.000000 29.197314 -5.330306 2.838249 15.650535 -31.832940 -71.160170 1.292283 -12.830884 -0.019574 2.187933 2.196576 0.033780 -0.047791 0.432548 -0.000000 0.000000 0.000000 0.000000 0.000000 0.000000 0.000000 9.262917 -15.269465 -1.396679 60.929557 14.297625 36.956970 179.321231 69.746895 179.962571 -7.073955 2.339775 -0.173260 0.219768 -0.405298 0.000000 0.000000 0.000000 0.000000 0.000000 0.000000 0.000000 
4.213712 17.361201 1.285703 -177.772209 -59.601332 -162.161884 -11.406596 2.323274 -3.855454 -14.575353 31.130970 -19.670261 -3.527288 -1.294378 -5.991524 1.988638 14.748823 1.608840 2.588600 -0.000000 -38.130000 9.346542 -0.044410 4.292723 -2.125838 9.945020 -23.136443 2.929253 1.537252 -5.461118 1.490213 7.669217 14.677110 2.060500 0.000000 -69.587900 2.130040 -5.610446 0.089476 0.592635 -5.671148 -2.454785 -3.581495 -5.758937 1.100252 17.451244 -17.065561 -7.148431 -0.502767 -0.042767 0.155718 0.000000 0.000000 0.000000 28.848740 -5.345592 2.519218 14.372441 -32.218244 -67.675205 1.276998 -16.200626 -0.000873 0.114865 1.190984 -0.000062 0.050155 0.494585 -0.000000 0.000000 0.000000 0.000000 0.000000 0.000000 0.000000 9.303738 -15.466635 -1.414255 61.502976 13.523946 36.398801 179.321295 69.837501 179.962046 -7.094802 2.342297 -0.174034 0.217906 -0.408273 0.000000 0.000000 0.000000 0.000000 0.000000 0.000000 0.000000 
